<svg width="180" height="180" fill="none" xmlns="http://www.w3.org/2000/svg"><g clip-path="url(#clip0)"><path d="M153.239 76.372l-42.569 42.915c-2.483 2.48-1.366 6.822 2.109 7.69l58.456 15.504c3.475.868 6.578-2.233 5.709-5.706L161.058 78.48c-1.117-3.473-5.337-4.713-7.819-2.108z" fill="url(#paint0_linear)"/><path d="M29.378 27.752L4.06 82.698c-1.49 3.224 1.117 6.821 4.592 6.573l60.193-5.581c3.599-.372 5.46-4.341 3.35-7.318L37.322 27.007c-2.11-2.976-6.454-2.48-7.943.745z" fill="url(#paint1_linear)"/><path d="M77.532 35.443l-73.1 108.28c-4.344 6.325-.124 15.007 7.57 15.628l130.439 9.178c7.695.496 13.032-7.442 9.681-14.388L94.783 36.683c-3.35-6.945-12.907-7.566-17.25-1.24z" fill="#2B68AB"/><path d="M80.015 123.506c-2.73-.248-4.84-2.604-4.592-5.333l3.599-50.729c.248-2.729 2.606-4.837 5.337-4.59 2.73.249 4.84 2.606 4.592 5.334l-3.6 50.729c-.248 2.729-2.606 4.713-5.336 4.589zm-.745 17.363a5.583 5.583 0 005.584-5.581c0-3.083-2.5-5.581-5.585-5.581a5.582 5.582 0 00-5.584 5.581c0 3.083 2.5 5.581 5.584 5.581z" fill="#fff"/><path d="M23.048 62.234c-2.606.744-5.336-.744-6.08-3.473L6.79 22.916c-.745-2.605.745-5.333 3.475-6.078 2.606-.744 5.337.745 6.082 3.473l10.176 35.845c.621 2.605-.868 5.334-3.475 6.078zm3.227 16.991a5.583 5.583 0 005.585-5.581c0-3.083-2.5-5.582-5.585-5.582a5.583 5.583 0 00-5.585 5.582c0 3.082 2.5 5.581 5.585 5.581z" fill="#28C2D1"/><path d="M158.947 105.52c-2.606-.744-4.095-3.597-3.351-6.202l10.674-35.597c.745-2.605 3.599-4.093 6.205-3.349 2.607.744 4.096 3.597 3.351 6.202l-10.797 35.721c-.745 2.605-3.475 4.093-6.082 3.225zm-3.474 16.991a5.583 5.583 0 005.585-5.581 5.584 5.584 0 00-5.585-5.581 5.582 5.582 0 100 11.162z" fill="#97C5F0"/><path d="M23.048 62.234c-2.606.744-5.336-.744-6.08-3.473L6.79 22.916c-.745-2.605.745-5.333 3.475-6.078 2.606-.744 5.337.745 6.082 3.473l10.176 35.845c.621 2.605-.868 5.334-3.475 6.078zm3.227 16.991a5.583 5.583 0 005.585-5.581c0-3.083-2.5-5.582-5.585-5.582a5.583 5.583 0 00-5.585 5.582c0 3.082 2.5 5.581 5.585 5.581z" fill="#2B68AB"/><path d="M98.508 22.172c-.745 1.24-.497 2.728.496 3.72.124.125.372.373.62.373 1.49.868 3.352.372 4.096-.992l3.848-6.45c.372-.744.496-1.489.372-2.357-.124-.62-.497-1.24-.993-1.612-.124-.124-.248-.124-.372-.248-1.49-.868-3.351-.372-4.096.992l-3.971 6.574zm11.79 13.767c.124.248.372.62.621.868.992.868 2.358 1.116 3.475.496l6.453-3.224a2.936 2.936 0 001.49-1.737c.248-.744.248-1.612-.124-2.357-.249-.372-.497-.744-.869-.992-.248-.248-.621-.372-.869-.496-.745-.248-1.613-.248-2.358.124l-6.454 3.225a2.934 2.934 0 00-1.489 1.736c-.248.869-.248 1.613.124 2.357zM83.366 19.442c.124.62.372 1.24.869 1.737.62.62 1.613.992 2.482.868 1.613-.248 2.855-1.736 2.606-3.473l-1.117-7.938c-.124-.744-.496-1.488-1.117-1.984-.62-.496-1.489-.744-2.358-.62-1.613.248-2.854 1.736-2.606 3.473l1.241 7.937z" fill="#E1DFDD"/></g><defs><linearGradient id="paint0_linear" x1="106.837" y1="120.743" x2="152.863" y2="111.159" gradientUnits="userSpaceOnUse"><stop offset=".001" stop-color="#D8E1E3"/><stop offset="1" stop-color="#fff"/></linearGradient><linearGradient id="paint1_linear" x1="68.093" y1="85.327" x2="33.687" y2="64.721" gradientUnits="userSpaceOnUse"><stop offset=".001" stop-color="#63AFF5"/><stop offset="1" stop-color="#97C5F0"/></linearGradient><clipPath id="clip0"><path fill="#fff" d="M0 0h180v180H0z"/></clipPath></defs></svg>